<?xml version="1.0"?>
<svg xmlns="http://www.w3.org/2000/svg" xmlns:xlink="http://www.w3.org/1999/xlink" xmlns:svgjs="http://svgjs.com/svgjs" version="1.1" width="512" height="512" x="0" y="0" viewBox="0 0 512 512" style="enable-background:new 0 0 512 512" xml:space="preserve"><g>
<g xmlns="http://www.w3.org/2000/svg">
	<g>
		<path d="M40,72c-13.232,0-24-10.768-24-24s10.768-24,24-24c4.424,0,8-3.584,8-8s-3.576-8-8-8C17.944,8,0,25.944,0,48    c0,22.056,17.944,40,40,40c4.424,0,8-3.584,8-8S44.424,72,40,72z" fill="#ffffff" data-original="#000000" style=""/>
	</g>
</g>
<g xmlns="http://www.w3.org/2000/svg">
	<g>
		<path d="M504,456c-4.424,0-8,3.576-8,8c0,13.232-10.768,24-24,24c-4.424,0-8,3.576-8,8s3.576,8,8,8c22.056,0,40-17.944,40-40    C512,459.576,508.424,456,504,456z" fill="#ffffff" data-original="#000000" style=""/>
	</g>
</g>
<g xmlns="http://www.w3.org/2000/svg">
	<g>
		<path d="M472,72c-4.424,0-8,3.584-8,8s3.576,8,8,8c13.232,0,24,10.768,24,24s-10.768,24-24,24c-4.424,0-8,3.584-8,8s3.576,8,8,8    c22.056,0,40-17.944,40-40C512,89.944,494.056,72,472,72z" fill="#ffffff" data-original="#000000" style=""/>
	</g>
</g>
<g xmlns="http://www.w3.org/2000/svg">
	<g>
		<path d="M8,40c-4.424,0-8,3.584-8,8v352.032c0,4.424,3.576,8,8,8s8-3.576,8-8V48C16,43.584,12.424,40,8,40z" fill="#ffffff" data-original="#000000" style=""/>
	</g>
</g>
<g xmlns="http://www.w3.org/2000/svg">
	<g>
		<path d="M456,424H40c-4.424,0-8,3.576-8,8s3.576,8,8,8h416c4.424,0,8-3.576,8-8S460.424,424,456,424z" fill="#ffffff" data-original="#000000" style=""/>
	</g>
</g>
<g xmlns="http://www.w3.org/2000/svg">
	<g>
		<path d="M472,72H40c-4.424,0-8,3.584-8,8s3.576,8,8,8h432c4.424,0,8-3.584,8-8S476.424,72,472,72z" fill="#ffffff" data-original="#000000" style=""/>
	</g>
</g>
<g xmlns="http://www.w3.org/2000/svg">
	<g>
		<path d="M504,104c-4.424,0-8,3.584-8,8v352c0,4.424,3.576,8,8,8s8-3.576,8-8V112C512,107.584,508.424,104,504,104z" fill="#ffffff" data-original="#000000" style=""/>
	</g>
</g>
<g xmlns="http://www.w3.org/2000/svg">
	<g>
		<path d="M456,136c-4.424,0-8,3.584-8,8v352c0,4.424,3.576,8,8,8s8-3.576,8-8V144C464,139.584,460.424,136,456,136z" fill="#ffffff" data-original="#000000" style=""/>
	</g>
</g>
<g xmlns="http://www.w3.org/2000/svg">
	<g>
		<path d="M56,8c-4.424,0-8,3.584-8,8v64c0,4.416,3.576,8,8,8s8-3.584,8-8V16C64,11.584,60.424,8,56,8z" fill="#ffffff" data-original="#000000" style=""/>
	</g>
</g>
<g xmlns="http://www.w3.org/2000/svg">
	<g>
		<path d="M40,424.032c-13.232,0-24-10.768-24-24c0-4.424-3.576-8-8-8s-8,3.576-8,8c0,22.056,17.944,40,40,40c4.424,0,8-3.576,8-8    S44.424,424.032,40,424.032z" fill="#ffffff" data-original="#000000" style=""/>
	</g>
</g>
<g xmlns="http://www.w3.org/2000/svg">
	<g>
		<path d="M472,136h-16c-4.424,0-8,3.584-8,8s3.576,8,8,8h16c4.424,0,8-3.584,8-8S476.424,136,472,136z" fill="#ffffff" data-original="#000000" style=""/>
	</g>
</g>
<g xmlns="http://www.w3.org/2000/svg">
	<g>
		<path d="M472,488h-16c-4.424,0-8,3.576-8,8s3.576,8,8,8h16c4.424,0,8-3.576,8-8S476.424,488,472,488z" fill="#ffffff" data-original="#000000" style=""/>
	</g>
</g>
<g xmlns="http://www.w3.org/2000/svg">
	<g>
		<path d="M56,8H40c-4.424,0-8,3.584-8,8s3.576,8,8,8h16c4.424,0,8-3.584,8-8S60.424,8,56,8z" fill="#ffffff" data-original="#000000" style=""/>
	</g>
</g>
<g xmlns="http://www.w3.org/2000/svg">
	<g>
		<path d="M400,456H96c-4.424,0-8,3.576-8,8s3.576,8,8,8h304c4.424,0,8-3.576,8-8S404.424,456,400,456z" fill="#ffffff" data-original="#000000" style=""/>
	</g>
</g>
<g xmlns="http://www.w3.org/2000/svg">
	<g>
		<path d="M400,456c-4.424,0-8,3.576-8,8v32c0,4.424,3.576,8,8,8s8-3.576,8-8v-32C408,459.576,404.424,456,400,456z" fill="#ffffff" data-original="#000000" style=""/>
	</g>
</g>
<g xmlns="http://www.w3.org/2000/svg">
	<g>
		<path d="M400,488H96c-4.424,0-8,3.576-8,8s3.576,8,8,8h304c4.424,0,8-3.576,8-8S404.424,488,400,488z" fill="#ffffff" data-original="#000000" style=""/>
	</g>
</g>
<g xmlns="http://www.w3.org/2000/svg">
	<g>
		<path d="M99.584,488.848l-32-16c-3.952-1.96-8.76-0.376-10.736,3.576c-1.976,3.952-0.376,8.76,3.576,10.736l32,16    c1.144,0.568,2.368,0.84,3.568,0.84c2.936,0,5.76-1.616,7.168-4.416C105.136,495.632,103.536,490.824,99.584,488.848z" fill="#ffffff" data-original="#000000" style=""/>
	</g>
</g>
<g xmlns="http://www.w3.org/2000/svg">
	<g>
		<path d="M103.152,460.416c-1.976-3.952-6.784-5.536-10.736-3.576l-32,16c-3.952,1.976-5.552,6.784-3.576,10.736    c1.408,2.808,4.232,4.424,7.168,4.424c1.2,0,2.424-0.272,3.568-0.848l32-16C103.528,469.176,105.128,464.368,103.152,460.416z" fill="#ffffff" data-original="#000000" style=""/>
	</g>
</g>
<g xmlns="http://www.w3.org/2000/svg">
	<g>
		<path d="M368,456c-4.424,0-8,3.576-8,8v32c0,4.424,3.576,8,8,8s8-3.576,8-8v-32C376,459.576,372.424,456,368,456z" fill="#ffffff" data-original="#000000" style=""/>
	</g>
</g>
<g xmlns="http://www.w3.org/2000/svg">
	<g>
		<path d="M336,456c-4.424,0-8,3.576-8,8v32c0,4.424,3.576,8,8,8s8-3.576,8-8v-32C344,459.576,340.424,456,336,456z" fill="#ffffff" data-original="#000000" style=""/>
	</g>
</g>
<g xmlns="http://www.w3.org/2000/svg">
	<g>
		<path d="M472,8H88c-4.424,0-8,3.584-8,8v32c0,4.416,3.576,8,8,8h384c4.424,0,8-3.584,8-8V16C480,11.584,476.424,8,472,8z M464,40    H96V24h368V40z" fill="#ffffff" data-original="#000000" style=""/>
	</g>
</g>
<g xmlns="http://www.w3.org/2000/svg">
	<g>
		<path d="M120,8c-4.424,0-8,3.584-8,8v8c0,4.416,3.576,8,8,8s8-3.584,8-8v-8C128,11.584,124.424,8,120,8z" fill="#ffffff" data-original="#000000" style=""/>
	</g>
</g>
<g xmlns="http://www.w3.org/2000/svg">
	<g>
		<path d="M152,8c-4.424,0-8,3.584-8,8v8c0,4.416,3.576,8,8,8s8-3.584,8-8v-8C160,11.584,156.424,8,152,8z" fill="#ffffff" data-original="#000000" style=""/>
	</g>
</g>
<g xmlns="http://www.w3.org/2000/svg">
	<g>
		<path d="M184,8c-4.424,0-8,3.584-8,8v8c0,4.416,3.576,8,8,8s8-3.584,8-8v-8C192,11.584,188.424,8,184,8z" fill="#ffffff" data-original="#000000" style=""/>
	</g>
</g>
<g xmlns="http://www.w3.org/2000/svg">
	<g>
		<path d="M216,8c-4.424,0-8,3.584-8,8v8c0,4.416,3.576,8,8,8s8-3.584,8-8v-8C224,11.584,220.424,8,216,8z" fill="#ffffff" data-original="#000000" style=""/>
	</g>
</g>
<g xmlns="http://www.w3.org/2000/svg">
	<g>
		<path d="M248,8c-4.424,0-8,3.584-8,8v8c0,4.416,3.576,8,8,8s8-3.584,8-8v-8C256,11.584,252.424,8,248,8z" fill="#ffffff" data-original="#000000" style=""/>
	</g>
</g>
<g xmlns="http://www.w3.org/2000/svg">
	<g>
		<path d="M280,8c-4.424,0-8,3.584-8,8v8c0,4.416,3.576,8,8,8s8-3.584,8-8v-8C288,11.584,284.424,8,280,8z" fill="#ffffff" data-original="#000000" style=""/>
	</g>
</g>
<g xmlns="http://www.w3.org/2000/svg">
	<g>
		<path d="M312,8c-4.424,0-8,3.584-8,8v8c0,4.416,3.576,8,8,8s8-3.584,8-8v-8C320,11.584,316.424,8,312,8z" fill="#ffffff" data-original="#000000" style=""/>
	</g>
</g>
<g xmlns="http://www.w3.org/2000/svg">
	<g>
		<path d="M344,8c-4.424,0-8,3.584-8,8v8c0,4.416,3.576,8,8,8s8-3.584,8-8v-8C352,11.584,348.424,8,344,8z" fill="#ffffff" data-original="#000000" style=""/>
	</g>
</g>
<g xmlns="http://www.w3.org/2000/svg">
	<g>
		<path d="M376,8c-4.424,0-8,3.584-8,8v8c0,4.416,3.576,8,8,8s8-3.584,8-8v-8C384,11.584,380.424,8,376,8z" fill="#ffffff" data-original="#000000" style=""/>
	</g>
</g>
<g xmlns="http://www.w3.org/2000/svg">
	<g>
		<path d="M408,8c-4.424,0-8,3.584-8,8v8c0,4.416,3.576,8,8,8s8-3.584,8-8v-8C416,11.584,412.424,8,408,8z" fill="#ffffff" data-original="#000000" style=""/>
	</g>
</g>
<g xmlns="http://www.w3.org/2000/svg">
	<g>
		<path d="M440,8c-4.424,0-8,3.584-8,8v8c0,4.416,3.576,8,8,8s8-3.584,8-8v-8C448,11.584,444.424,8,440,8z" fill="#ffffff" data-original="#000000" style=""/>
	</g>
</g>
<g xmlns="http://www.w3.org/2000/svg">
	<g>
		<path d="M238.968,140.072c-2.168-3.848-7.032-5.224-10.888-3.048l-128,72c-3.856,2.168-5.216,7.048-3.048,10.896    c1.472,2.608,4.176,4.08,6.976,4.08c1.328,0,2.672-0.328,3.912-1.032l128-72C239.776,148.8,241.136,143.92,238.968,140.072z" fill="#ffffff" data-original="#000000" style=""/>
	</g>
</g>
<g xmlns="http://www.w3.org/2000/svg">
	<g>
		<path d="M363.928,209.032l-128.008-72c-3.864-2.184-8.728-0.808-10.896,3.048c-2.16,3.856-0.792,8.728,3.056,10.896l128.008,72    c1.24,0.696,2.584,1.024,3.912,1.024c2.8,0,5.512-1.472,6.984-4.072C369.144,216.072,367.776,211.2,363.928,209.032z" fill="#ffffff" data-original="#000000" style=""/>
	</g>
</g>
<g xmlns="http://www.w3.org/2000/svg">
	<g>
		<path d="M238.968,172.072c-2.168-3.848-7.032-5.216-10.888-3.048l-128,72c-3.856,2.168-5.216,7.048-3.048,10.896    c1.472,2.608,4.176,4.08,6.976,4.08c1.328,0,2.672-0.328,3.912-1.032l128-72C239.776,180.8,241.136,175.92,238.968,172.072z" fill="#ffffff" data-original="#000000" style=""/>
	</g>
</g>
<g xmlns="http://www.w3.org/2000/svg">
	<g>
		<path d="M363.928,241.032l-128.008-72c-3.864-2.176-8.736-0.808-10.896,3.048c-2.16,3.856-0.792,8.728,3.056,10.896l128.008,72    c1.24,0.696,2.584,1.024,3.912,1.024c2.8,0,5.512-1.472,6.984-4.072C369.144,248.072,367.776,243.2,363.928,241.032z" fill="#ffffff" data-original="#000000" style=""/>
	</g>
</g>
<g xmlns="http://www.w3.org/2000/svg">
	<g>
		<path d="M104,208c-4.424,0-8,3.584-8,8v32c0,4.416,3.576,8,8,8s8-3.584,8-8v-32C112,211.584,108.424,208,104,208z" fill="#ffffff" data-original="#000000" style=""/>
	</g>
</g>
<g xmlns="http://www.w3.org/2000/svg">
	<g>
		<path d="M360.008,208c-4.424,0-8,3.584-8,8v32c0,4.416,3.576,8,8,8s8-3.584,8-8v-32C368.008,211.584,364.432,208,360.008,208z" fill="#ffffff" data-original="#000000" style=""/>
	</g>
</g>
<g xmlns="http://www.w3.org/2000/svg">
	<g>
		<path d="M128,226.504c-4.424,0-8,3.584-8,8V360c0,4.424,3.576,8,8,8s8-3.576,8-8V234.504C136,230.088,132.424,226.504,128,226.504    z" fill="#ffffff" data-original="#000000" style=""/>
	</g>
</g>
<g xmlns="http://www.w3.org/2000/svg">
	<g>
		<path d="M336,352H128c-4.424,0-8,3.576-8,8s3.576,8,8,8h208c4.424,0,8-3.576,8-8S340.424,352,336,352z" fill="#ffffff" data-original="#000000" style=""/>
	</g>
</g>
<g xmlns="http://www.w3.org/2000/svg">
	<g>
		<path d="M336,226.504c-4.424,0-8,3.584-8,8V360c0,4.424,3.576,8,8,8s8-3.576,8-8V234.504C344,230.088,340.424,226.504,336,226.504    z" fill="#ffffff" data-original="#000000" style=""/>
	</g>
</g>
<g xmlns="http://www.w3.org/2000/svg">
	<g>
		<path d="M256,272h-48c-4.424,0-8,3.576-8,8v80c0,4.424,3.576,8,8,8h48c4.424,0,8-3.576,8-8v-80C264,275.576,260.424,272,256,272z     M248,352h-32v-64h32V352z" fill="#ffffff" data-original="#000000" style=""/>
	</g>
</g>
<g xmlns="http://www.w3.org/2000/svg">
	<g>
		<path d="M80,240H64c-4.424,0-8,3.584-8,8s3.576,8,8,8h16c4.424,0,8-3.584,8-8S84.424,240,80,240z" fill="#ffffff" data-original="#000000" style=""/>
	</g>
</g>
<g xmlns="http://www.w3.org/2000/svg">
	<g>
		<path d="M80,208H64c-4.424,0-8,3.584-8,8s3.576,8,8,8h16c4.424,0,8-3.584,8-8S84.424,208,80,208z" fill="#ffffff" data-original="#000000" style=""/>
	</g>
</g>
<g xmlns="http://www.w3.org/2000/svg">
	<g>
		<path d="M72,208c-4.424,0-8,3.584-8,8v32c0,4.416,3.576,8,8,8s8-3.584,8-8v-32C80,211.584,76.424,208,72,208z" fill="#ffffff" data-original="#000000" style=""/>
	</g>
</g>
<g xmlns="http://www.w3.org/2000/svg">
	<g>
		<path d="M400,240h-15.992c-4.424,0-8,3.584-8,8s3.576,8,8,8H400c4.424,0,8-3.584,8-8S404.424,240,400,240z" fill="#ffffff" data-original="#000000" style=""/>
	</g>
</g>
<g xmlns="http://www.w3.org/2000/svg">
	<g>
		<path d="M392,241.504c-4.424,0-8,3.584-8,8V360c0,4.424,3.576,8,8,8s8-3.576,8-8V249.504C400,245.088,396.424,241.504,392,241.504    z" fill="#ffffff" data-original="#000000" style=""/>
	</g>
</g>
<g xmlns="http://www.w3.org/2000/svg">
	<g>
		<path d="M400,352h-16c-4.424,0-8,3.576-8,8s3.576,8,8,8h16c4.424,0,8-3.576,8-8S404.424,352,400,352z" fill="#ffffff" data-original="#000000" style=""/>
	</g>
</g>
<g xmlns="http://www.w3.org/2000/svg">
	<g>
		<path d="M128,376c-4.424,0-8,3.576-8,8v16c0,4.424,3.576,8,8,8s8-3.576,8-8v-16C136,379.576,132.424,376,128,376z" fill="#ffffff" data-original="#000000" style=""/>
	</g>
</g>
<g xmlns="http://www.w3.org/2000/svg">
	<g>
		<path d="M336,376c-4.424,0-8,3.576-8,8v16c0,4.424,3.576,8,8,8s8-3.576,8-8v-16C344,379.576,340.424,376,336,376z" fill="#ffffff" data-original="#000000" style=""/>
	</g>
</g>
<g xmlns="http://www.w3.org/2000/svg">
	<g>
		<path d="M336,384H128c-4.424,0-8,3.576-8,8s3.576,8,8,8h208c4.424,0,8-3.576,8-8S340.424,384,336,384z" fill="#ffffff" data-original="#000000" style=""/>
	</g>
</g>
<g xmlns="http://www.w3.org/2000/svg">
	<g>
		<path d="M360,112H104c-4.424,0-8,3.584-8,8s3.576,8,8,8h256c4.424,0,8-3.584,8-8S364.424,112,360,112z" fill="#ffffff" data-original="#000000" style=""/>
	</g>
</g>
<g xmlns="http://www.w3.org/2000/svg">
	<g>
		<path d="M360,104c-4.424,0-8,3.584-8,8v16c0,4.416,3.576,8,8,8s8-3.584,8-8v-16C368,107.584,364.424,104,360,104z" fill="#ffffff" data-original="#000000" style=""/>
	</g>
</g>
<g xmlns="http://www.w3.org/2000/svg">
	<g>
		<path d="M104,104c-4.424,0-8,3.584-8,8v16c0,4.416,3.576,8,8,8s8-3.584,8-8v-16C112,107.584,108.424,104,104,104z" fill="#ffffff" data-original="#000000" style=""/>
	</g>
</g>
<g xmlns="http://www.w3.org/2000/svg">
</g>
<g xmlns="http://www.w3.org/2000/svg">
</g>
<g xmlns="http://www.w3.org/2000/svg">
</g>
<g xmlns="http://www.w3.org/2000/svg">
</g>
<g xmlns="http://www.w3.org/2000/svg">
</g>
<g xmlns="http://www.w3.org/2000/svg">
</g>
<g xmlns="http://www.w3.org/2000/svg">
</g>
<g xmlns="http://www.w3.org/2000/svg">
</g>
<g xmlns="http://www.w3.org/2000/svg">
</g>
<g xmlns="http://www.w3.org/2000/svg">
</g>
<g xmlns="http://www.w3.org/2000/svg">
</g>
<g xmlns="http://www.w3.org/2000/svg">
</g>
<g xmlns="http://www.w3.org/2000/svg">
</g>
<g xmlns="http://www.w3.org/2000/svg">
</g>
<g xmlns="http://www.w3.org/2000/svg">
</g>
</g></svg>
